G04 #@! TF.FileFunction,Legend,Top*
%FSLAX46Y46*%
G04 Gerber Fmt 4.6, Leading zero omitted, Abs format (unit mm)*
G04 Created by KiCad (PCBNEW 4.0.7) date 12/11/17 08:47:06*
%MOMM*%
%LPD*%
G01*
G04 APERTURE LIST*
%ADD10C,0.100000*%
%ADD11C,0.750000*%
%ADD12C,0.120000*%
%ADD13C,0.150000*%
G04 APERTURE END LIST*
D10*
D11*
X139856981Y-119253000D02*
G75*
G03X139856981Y-119253000I-283981J0D01*
G01*
D12*
X122310000Y-116805000D02*
X122310000Y-115605000D01*
X124070000Y-115605000D02*
X124070000Y-116805000D01*
X122490000Y-114195000D02*
X123890000Y-114195000D01*
X123890000Y-114195000D02*
X123890000Y-111395000D01*
X122490000Y-114195000D02*
X122490000Y-111395000D01*
X123155000Y-110100000D02*
X121955000Y-110100000D01*
X121955000Y-108340000D02*
X123155000Y-108340000D01*
X121320000Y-117865000D02*
X122520000Y-117865000D01*
X122520000Y-119625000D02*
X121320000Y-119625000D01*
X128660000Y-110455000D02*
X128660000Y-109255000D01*
X130420000Y-109255000D02*
X130420000Y-110455000D01*
X128305000Y-112150000D02*
X129505000Y-112150000D01*
X129505000Y-113910000D02*
X128305000Y-113910000D01*
X131200000Y-114900000D02*
X131200000Y-113700000D01*
X132960000Y-113700000D02*
X132960000Y-114900000D01*
X135500000Y-113700000D02*
X135500000Y-114900000D01*
X133740000Y-114900000D02*
X133740000Y-113700000D01*
X138548000Y-108620000D02*
X138548000Y-109820000D01*
X136788000Y-109820000D02*
X136788000Y-108620000D01*
X126610000Y-116240000D02*
X126610000Y-117440000D01*
X124850000Y-117440000D02*
X124850000Y-116240000D01*
X129665000Y-118420000D02*
X129665000Y-117490000D01*
X129665000Y-115260000D02*
X129665000Y-116190000D01*
X129665000Y-115260000D02*
X127505000Y-115260000D01*
X129665000Y-118420000D02*
X128205000Y-118420000D01*
X133475000Y-119690000D02*
X133475000Y-118760000D01*
X133475000Y-116530000D02*
X133475000Y-117460000D01*
X133475000Y-116530000D02*
X131315000Y-116530000D01*
X133475000Y-119690000D02*
X132015000Y-119690000D01*
X137285000Y-119690000D02*
X137285000Y-118760000D01*
X137285000Y-116530000D02*
X137285000Y-117460000D01*
X137285000Y-116530000D02*
X135125000Y-116530000D01*
X137285000Y-119690000D02*
X135825000Y-119690000D01*
X133860000Y-107640000D02*
X133860000Y-108570000D01*
X133860000Y-110800000D02*
X133860000Y-109870000D01*
X133860000Y-110800000D02*
X136020000Y-110800000D01*
X133860000Y-107640000D02*
X135320000Y-107640000D01*
X136215000Y-115060000D02*
X137145000Y-115060000D01*
X139375000Y-115060000D02*
X138445000Y-115060000D01*
X139375000Y-115060000D02*
X139375000Y-112900000D01*
X136215000Y-115060000D02*
X136215000Y-113600000D01*
X140707000Y-110017000D02*
X140707000Y-111217000D01*
X138947000Y-111217000D02*
X138947000Y-110017000D01*
D13*
X121666000Y-112141000D02*
X121666000Y-111506000D01*
X121666000Y-112776000D02*
X121666000Y-113411000D01*
X121666000Y-112776000D02*
X121031000Y-112776000D01*
X121666000Y-112776000D02*
X122301000Y-112776000D01*
X122301000Y-112141000D02*
X121031000Y-112141000D01*
X121031000Y-112141000D02*
X121666000Y-112776000D01*
X121666000Y-112776000D02*
X122301000Y-112141000D01*
D12*
X126750000Y-114030000D02*
X126750000Y-112030000D01*
X124710000Y-112030000D02*
X124710000Y-114030000D01*
D13*
X125563334Y-119832381D02*
X125230000Y-119356190D01*
X124991905Y-119832381D02*
X124991905Y-118832381D01*
X125372858Y-118832381D01*
X125468096Y-118880000D01*
X125515715Y-118927619D01*
X125563334Y-119022857D01*
X125563334Y-119165714D01*
X125515715Y-119260952D01*
X125468096Y-119308571D01*
X125372858Y-119356190D01*
X124991905Y-119356190D01*
X125944286Y-118927619D02*
X125991905Y-118880000D01*
X126087143Y-118832381D01*
X126325239Y-118832381D01*
X126420477Y-118880000D01*
X126468096Y-118927619D01*
X126515715Y-119022857D01*
X126515715Y-119118095D01*
X126468096Y-119260952D01*
X125896667Y-119832381D01*
X126515715Y-119832381D01*
X121356381Y-114657095D02*
X120356381Y-114657095D01*
X120356381Y-114419000D01*
X120404000Y-114276142D01*
X120499238Y-114180904D01*
X120594476Y-114133285D01*
X120784952Y-114085666D01*
X120927810Y-114085666D01*
X121118286Y-114133285D01*
X121213524Y-114180904D01*
X121308762Y-114276142D01*
X121356381Y-114419000D01*
X121356381Y-114657095D01*
X121356381Y-113133285D02*
X121356381Y-113704714D01*
X121356381Y-113419000D02*
X120356381Y-113419000D01*
X120499238Y-113514238D01*
X120594476Y-113609476D01*
X120642095Y-113704714D01*
X122388334Y-108022381D02*
X122055000Y-107546190D01*
X121816905Y-108022381D02*
X121816905Y-107022381D01*
X122197858Y-107022381D01*
X122293096Y-107070000D01*
X122340715Y-107117619D01*
X122388334Y-107212857D01*
X122388334Y-107355714D01*
X122340715Y-107450952D01*
X122293096Y-107498571D01*
X122197858Y-107546190D01*
X121816905Y-107546190D01*
X123340715Y-108022381D02*
X122769286Y-108022381D01*
X123055000Y-108022381D02*
X123055000Y-107022381D01*
X122959762Y-107165238D01*
X122864524Y-107260476D01*
X122769286Y-107308095D01*
X121753334Y-120721381D02*
X121420000Y-120245190D01*
X121181905Y-120721381D02*
X121181905Y-119721381D01*
X121562858Y-119721381D01*
X121658096Y-119769000D01*
X121705715Y-119816619D01*
X121753334Y-119911857D01*
X121753334Y-120054714D01*
X121705715Y-120149952D01*
X121658096Y-120197571D01*
X121562858Y-120245190D01*
X121181905Y-120245190D01*
X122086667Y-119721381D02*
X122705715Y-119721381D01*
X122372381Y-120102333D01*
X122515239Y-120102333D01*
X122610477Y-120149952D01*
X122658096Y-120197571D01*
X122705715Y-120292810D01*
X122705715Y-120530905D01*
X122658096Y-120626143D01*
X122610477Y-120673762D01*
X122515239Y-120721381D01*
X122229524Y-120721381D01*
X122134286Y-120673762D01*
X122086667Y-120626143D01*
X129246334Y-108021381D02*
X128913000Y-107545190D01*
X128674905Y-108021381D02*
X128674905Y-107021381D01*
X129055858Y-107021381D01*
X129151096Y-107069000D01*
X129198715Y-107116619D01*
X129246334Y-107211857D01*
X129246334Y-107354714D01*
X129198715Y-107449952D01*
X129151096Y-107497571D01*
X129055858Y-107545190D01*
X128674905Y-107545190D01*
X130103477Y-107354714D02*
X130103477Y-108021381D01*
X129865381Y-106973762D02*
X129627286Y-107688048D01*
X130246334Y-107688048D01*
X128738334Y-115069881D02*
X128405000Y-114593690D01*
X128166905Y-115069881D02*
X128166905Y-114069881D01*
X128547858Y-114069881D01*
X128643096Y-114117500D01*
X128690715Y-114165119D01*
X128738334Y-114260357D01*
X128738334Y-114403214D01*
X128690715Y-114498452D01*
X128643096Y-114546071D01*
X128547858Y-114593690D01*
X128166905Y-114593690D01*
X129643096Y-114069881D02*
X129166905Y-114069881D01*
X129119286Y-114546071D01*
X129166905Y-114498452D01*
X129262143Y-114450833D01*
X129500239Y-114450833D01*
X129595477Y-114498452D01*
X129643096Y-114546071D01*
X129690715Y-114641310D01*
X129690715Y-114879405D01*
X129643096Y-114974643D01*
X129595477Y-115022262D01*
X129500239Y-115069881D01*
X129262143Y-115069881D01*
X129166905Y-115022262D01*
X129119286Y-114974643D01*
X135072381Y-112053666D02*
X134596190Y-112387000D01*
X135072381Y-112625095D02*
X134072381Y-112625095D01*
X134072381Y-112244142D01*
X134120000Y-112148904D01*
X134167619Y-112101285D01*
X134262857Y-112053666D01*
X134405714Y-112053666D01*
X134500952Y-112101285D01*
X134548571Y-112148904D01*
X134596190Y-112244142D01*
X134596190Y-112625095D01*
X134072381Y-111196523D02*
X134072381Y-111387000D01*
X134120000Y-111482238D01*
X134167619Y-111529857D01*
X134310476Y-111625095D01*
X134500952Y-111672714D01*
X134881905Y-111672714D01*
X134977143Y-111625095D01*
X135024762Y-111577476D01*
X135072381Y-111482238D01*
X135072381Y-111291761D01*
X135024762Y-111196523D01*
X134977143Y-111148904D01*
X134881905Y-111101285D01*
X134643810Y-111101285D01*
X134548571Y-111148904D01*
X134500952Y-111196523D01*
X134453333Y-111291761D01*
X134453333Y-111482238D01*
X134500952Y-111577476D01*
X134548571Y-111625095D01*
X134643810Y-111672714D01*
X132532381Y-112053666D02*
X132056190Y-112387000D01*
X132532381Y-112625095D02*
X131532381Y-112625095D01*
X131532381Y-112244142D01*
X131580000Y-112148904D01*
X131627619Y-112101285D01*
X131722857Y-112053666D01*
X131865714Y-112053666D01*
X131960952Y-112101285D01*
X132008571Y-112148904D01*
X132056190Y-112244142D01*
X132056190Y-112625095D01*
X131532381Y-111720333D02*
X131532381Y-111053666D01*
X132532381Y-111482238D01*
X137501334Y-111958381D02*
X137168000Y-111482190D01*
X136929905Y-111958381D02*
X136929905Y-110958381D01*
X137310858Y-110958381D01*
X137406096Y-111006000D01*
X137453715Y-111053619D01*
X137501334Y-111148857D01*
X137501334Y-111291714D01*
X137453715Y-111386952D01*
X137406096Y-111434571D01*
X137310858Y-111482190D01*
X136929905Y-111482190D01*
X138072762Y-111386952D02*
X137977524Y-111339333D01*
X137929905Y-111291714D01*
X137882286Y-111196476D01*
X137882286Y-111148857D01*
X137929905Y-111053619D01*
X137977524Y-111006000D01*
X138072762Y-110958381D01*
X138263239Y-110958381D01*
X138358477Y-111006000D01*
X138406096Y-111053619D01*
X138453715Y-111148857D01*
X138453715Y-111196476D01*
X138406096Y-111291714D01*
X138358477Y-111339333D01*
X138263239Y-111386952D01*
X138072762Y-111386952D01*
X137977524Y-111434571D01*
X137929905Y-111482190D01*
X137882286Y-111577429D01*
X137882286Y-111767905D01*
X137929905Y-111863143D01*
X137977524Y-111910762D01*
X138072762Y-111958381D01*
X138263239Y-111958381D01*
X138358477Y-111910762D01*
X138406096Y-111863143D01*
X138453715Y-111767905D01*
X138453715Y-111577429D01*
X138406096Y-111482190D01*
X138358477Y-111434571D01*
X138263239Y-111386952D01*
X121737381Y-116371666D02*
X121261190Y-116705000D01*
X121737381Y-116943095D02*
X120737381Y-116943095D01*
X120737381Y-116562142D01*
X120785000Y-116466904D01*
X120832619Y-116419285D01*
X120927857Y-116371666D01*
X121070714Y-116371666D01*
X121165952Y-116419285D01*
X121213571Y-116466904D01*
X121261190Y-116562142D01*
X121261190Y-116943095D01*
X121737381Y-115895476D02*
X121737381Y-115705000D01*
X121689762Y-115609761D01*
X121642143Y-115562142D01*
X121499286Y-115466904D01*
X121308810Y-115419285D01*
X120927857Y-115419285D01*
X120832619Y-115466904D01*
X120785000Y-115514523D01*
X120737381Y-115609761D01*
X120737381Y-115800238D01*
X120785000Y-115895476D01*
X120832619Y-115943095D01*
X120927857Y-115990714D01*
X121165952Y-115990714D01*
X121261190Y-115943095D01*
X121308810Y-115895476D01*
X121356429Y-115800238D01*
X121356429Y-115609761D01*
X121308810Y-115514523D01*
X121261190Y-115466904D01*
X121165952Y-115419285D01*
X128682762Y-119927619D02*
X128587524Y-119880000D01*
X128492286Y-119784762D01*
X128349429Y-119641905D01*
X128254190Y-119594286D01*
X128158952Y-119594286D01*
X128206571Y-119832381D02*
X128111333Y-119784762D01*
X128016095Y-119689524D01*
X127968476Y-119499048D01*
X127968476Y-119165714D01*
X128016095Y-118975238D01*
X128111333Y-118880000D01*
X128206571Y-118832381D01*
X128397048Y-118832381D01*
X128492286Y-118880000D01*
X128587524Y-118975238D01*
X128635143Y-119165714D01*
X128635143Y-119499048D01*
X128587524Y-119689524D01*
X128492286Y-119784762D01*
X128397048Y-119832381D01*
X128206571Y-119832381D01*
X129587524Y-119832381D02*
X129016095Y-119832381D01*
X129301809Y-119832381D02*
X129301809Y-118832381D01*
X129206571Y-118975238D01*
X129111333Y-119070476D01*
X129016095Y-119118095D01*
X132746905Y-120721381D02*
X132746905Y-120197571D01*
X132699286Y-120102333D01*
X132604048Y-120054714D01*
X132413571Y-120054714D01*
X132318333Y-120102333D01*
X132746905Y-120673762D02*
X132651667Y-120721381D01*
X132413571Y-120721381D01*
X132318333Y-120673762D01*
X132270714Y-120578524D01*
X132270714Y-120483286D01*
X132318333Y-120388048D01*
X132413571Y-120340429D01*
X132651667Y-120340429D01*
X132746905Y-120292810D01*
X133889762Y-120816619D02*
X133794524Y-120769000D01*
X133699286Y-120673762D01*
X133556429Y-120530905D01*
X133461190Y-120483286D01*
X133365952Y-120483286D01*
X133413571Y-120721381D02*
X133318333Y-120673762D01*
X133223095Y-120578524D01*
X133175476Y-120388048D01*
X133175476Y-120054714D01*
X133223095Y-119864238D01*
X133318333Y-119769000D01*
X133413571Y-119721381D01*
X133604048Y-119721381D01*
X133699286Y-119769000D01*
X133794524Y-119864238D01*
X133842143Y-120054714D01*
X133842143Y-120388048D01*
X133794524Y-120578524D01*
X133699286Y-120673762D01*
X133604048Y-120721381D01*
X133413571Y-120721381D01*
X134223095Y-119816619D02*
X134270714Y-119769000D01*
X134365952Y-119721381D01*
X134604048Y-119721381D01*
X134699286Y-119769000D01*
X134746905Y-119816619D01*
X134794524Y-119911857D01*
X134794524Y-120007095D01*
X134746905Y-120149952D01*
X134175476Y-120721381D01*
X134794524Y-120721381D01*
X135223095Y-120721381D02*
X135223095Y-119721381D01*
X135223095Y-120102333D02*
X135318333Y-120054714D01*
X135508810Y-120054714D01*
X135604048Y-120102333D01*
X135651667Y-120149952D01*
X135699286Y-120245190D01*
X135699286Y-120530905D01*
X135651667Y-120626143D01*
X135604048Y-120673762D01*
X135508810Y-120721381D01*
X135318333Y-120721381D01*
X135223095Y-120673762D01*
X132619762Y-108370619D02*
X132524524Y-108323000D01*
X132429286Y-108227762D01*
X132286429Y-108084905D01*
X132191190Y-108037286D01*
X132095952Y-108037286D01*
X132143571Y-108275381D02*
X132048333Y-108227762D01*
X131953095Y-108132524D01*
X131905476Y-107942048D01*
X131905476Y-107608714D01*
X131953095Y-107418238D01*
X132048333Y-107323000D01*
X132143571Y-107275381D01*
X132334048Y-107275381D01*
X132429286Y-107323000D01*
X132524524Y-107418238D01*
X132572143Y-107608714D01*
X132572143Y-107942048D01*
X132524524Y-108132524D01*
X132429286Y-108227762D01*
X132334048Y-108275381D01*
X132143571Y-108275381D01*
X132905476Y-107275381D02*
X133524524Y-107275381D01*
X133191190Y-107656333D01*
X133334048Y-107656333D01*
X133429286Y-107703952D01*
X133476905Y-107751571D01*
X133524524Y-107846810D01*
X133524524Y-108084905D01*
X133476905Y-108180143D01*
X133429286Y-108227762D01*
X133334048Y-108275381D01*
X133048333Y-108275381D01*
X132953095Y-108227762D01*
X132905476Y-108180143D01*
X139350762Y-116371619D02*
X139255524Y-116324000D01*
X139160286Y-116228762D01*
X139017429Y-116085905D01*
X138922190Y-116038286D01*
X138826952Y-116038286D01*
X138874571Y-116276381D02*
X138779333Y-116228762D01*
X138684095Y-116133524D01*
X138636476Y-115943048D01*
X138636476Y-115609714D01*
X138684095Y-115419238D01*
X138779333Y-115324000D01*
X138874571Y-115276381D01*
X139065048Y-115276381D01*
X139160286Y-115324000D01*
X139255524Y-115419238D01*
X139303143Y-115609714D01*
X139303143Y-115943048D01*
X139255524Y-116133524D01*
X139160286Y-116228762D01*
X139065048Y-116276381D01*
X138874571Y-116276381D01*
X140160286Y-115609714D02*
X140160286Y-116276381D01*
X139922190Y-115228762D02*
X139684095Y-115943048D01*
X140303143Y-115943048D01*
X140279381Y-108465857D02*
X139803190Y-108799191D01*
X140279381Y-109037286D02*
X139279381Y-109037286D01*
X139279381Y-108656333D01*
X139327000Y-108561095D01*
X139374619Y-108513476D01*
X139469857Y-108465857D01*
X139612714Y-108465857D01*
X139707952Y-108513476D01*
X139755571Y-108561095D01*
X139803190Y-108656333D01*
X139803190Y-109037286D01*
X140279381Y-107513476D02*
X140279381Y-108084905D01*
X140279381Y-107799191D02*
X139279381Y-107799191D01*
X139422238Y-107894429D01*
X139517476Y-107989667D01*
X139565095Y-108084905D01*
X139279381Y-106894429D02*
X139279381Y-106799190D01*
X139327000Y-106703952D01*
X139374619Y-106656333D01*
X139469857Y-106608714D01*
X139660333Y-106561095D01*
X139898429Y-106561095D01*
X140088905Y-106608714D01*
X140184143Y-106656333D01*
X140231762Y-106703952D01*
X140279381Y-106799190D01*
X140279381Y-106894429D01*
X140231762Y-106989667D01*
X140184143Y-107037286D01*
X140088905Y-107084905D01*
X139898429Y-107132524D01*
X139660333Y-107132524D01*
X139469857Y-107084905D01*
X139374619Y-107037286D01*
X139327000Y-106989667D01*
X139279381Y-106894429D01*
X126087143Y-109767666D02*
X126134762Y-109815285D01*
X126182381Y-109958142D01*
X126182381Y-110053380D01*
X126134762Y-110196238D01*
X126039524Y-110291476D01*
X125944286Y-110339095D01*
X125753810Y-110386714D01*
X125610952Y-110386714D01*
X125420476Y-110339095D01*
X125325238Y-110291476D01*
X125230000Y-110196238D01*
X125182381Y-110053380D01*
X125182381Y-109958142D01*
X125230000Y-109815285D01*
X125277619Y-109767666D01*
X126182381Y-108815285D02*
X126182381Y-109386714D01*
X126182381Y-109101000D02*
X125182381Y-109101000D01*
X125325238Y-109196238D01*
X125420476Y-109291476D01*
X125468095Y-109386714D01*
M02*
